<svg width="23" height="22" viewBox="0 0 23 22" fill="none" xmlns="http://www.w3.org/2000/svg">
<path d="M6.0319 13.1308L4.66522 19.0488C4.6229 19.228 4.63561 19.4158 4.70168 19.5877C4.76775 19.7596 4.88411 19.9075 5.03557 20.0122C5.18703 20.1169 5.36655 20.1735 5.55068 20.1746C5.7348 20.1757 5.91498 20.1212 6.06767 20.0183L11.062 16.6888L16.0564 20.0183C16.2126 20.1221 16.3968 20.1755 16.5843 20.1714C16.7718 20.1673 16.9536 20.1058 17.1051 19.9953C17.2567 19.8849 17.3707 19.7306 17.432 19.5534C17.4933 19.3761 17.4988 19.1844 17.4478 19.0039L15.7702 13.1336L19.9308 9.38944C20.064 9.26946 20.1592 9.11304 20.2045 8.93955C20.2498 8.76605 20.2432 8.58308 20.1856 8.41327C20.1281 8.24345 20.022 8.09424 19.8805 7.98408C19.739 7.87392 19.5683 7.80764 19.3896 7.79345L14.1604 7.37703L11.8976 2.36801C11.8255 2.20672 11.7082 2.06976 11.5599 1.97366C11.4116 1.87755 11.2387 1.82642 11.062 1.82642C10.8853 1.82642 10.7124 1.87755 10.5641 1.97366C10.4159 2.06976 10.2986 2.20672 10.2264 2.36801L7.9636 7.37703L2.73445 7.79254C2.55875 7.80645 2.39079 7.87069 2.25065 7.97757C2.11052 8.08445 2.00414 8.22943 1.94424 8.39518C1.88435 8.56094 1.87347 8.74044 1.91292 8.91221C1.95237 9.08398 2.04047 9.24074 2.16668 9.36376L6.0319 13.1308ZM8.64877 9.16288C8.81249 9.14998 8.96973 9.09328 9.104 8.99871C9.23827 8.90414 9.34462 8.77519 9.41191 8.62538L11.062 4.97387L12.7121 8.62538C12.7794 8.77519 12.8858 8.90414 13.02 8.99871C13.1543 9.09328 13.3115 9.14998 13.4753 9.16288L17.1185 9.45181L14.1182 12.1521C13.8577 12.387 13.7541 12.7484 13.8495 13.0859L14.9988 17.108L11.572 14.8231C11.4216 14.7222 11.2445 14.6683 11.0634 14.6683C10.8822 14.6683 10.7052 14.7222 10.5548 14.8231L6.9739 17.2107L7.937 13.0409C7.97231 12.8876 7.96757 12.7277 7.92323 12.5767C7.8789 12.4257 7.79646 12.2887 7.68384 12.1787L4.89728 9.4619L8.64877 9.16288Z" fill="#F3CD03"/>
</svg>
