<svg width="115" height="22" viewBox="0 0 115 22" fill="none" xmlns="http://www.w3.org/2000/svg">
<path d="M-0.0079999 17V0.199999H3.208L13.12 12.296H11.56V0.199999H15.4V17H12.208L2.272 4.904H3.832V17H-0.0079999ZM27.1308 17V14.48L26.8908 13.928V9.416C26.8908 8.616 26.6428 7.992 26.1468 7.544C25.6668 7.096 24.9228 6.872 23.9148 6.872C23.2268 6.872 22.5468 6.984 21.8748 7.208C21.2188 7.416 20.6588 7.704 20.1948 8.072L18.8508 5.456C19.5548 4.96 20.4028 4.576 21.3948 4.304C22.3868 4.032 23.3948 3.896 24.4188 3.896C26.3868 3.896 27.9148 4.36 29.0028 5.288C30.0908 6.216 30.6348 7.664 30.6348 9.632V17H27.1308ZM23.1948 17.192C22.1868 17.192 21.3228 17.024 20.6028 16.688C19.8828 16.336 19.3308 15.864 18.9468 15.272C18.5628 14.68 18.3708 14.016 18.3708 13.28C18.3708 12.512 18.5548 11.84 18.9228 11.264C19.3068 10.688 19.9068 10.24 20.7228 9.92C21.5388 9.584 22.6028 9.416 23.9148 9.416H27.3468V11.6H24.3228C23.4428 11.6 22.8348 11.744 22.4988 12.032C22.1788 12.32 22.0188 12.68 22.0188 13.112C22.0188 13.592 22.2028 13.976 22.5708 14.264C22.9548 14.536 23.4748 14.672 24.1308 14.672C24.7548 14.672 25.3148 14.528 25.8108 14.24C26.3068 13.936 26.6668 13.496 26.8908 12.92L27.4668 14.648C27.1948 15.48 26.6988 16.112 25.9788 16.544C25.2588 16.976 24.3308 17.192 23.1948 17.192ZM38.4673 17.192C37.3633 17.192 36.2993 17.064 35.2753 16.808C34.2673 16.536 33.4673 16.2 32.8753 15.8L34.1233 13.112C34.7153 13.48 35.4113 13.784 36.2113 14.024C37.0273 14.248 37.8273 14.36 38.6113 14.36C39.4753 14.36 40.0833 14.256 40.4353 14.048C40.8033 13.84 40.9873 13.552 40.9873 13.184C40.9873 12.88 40.8433 12.656 40.5553 12.512C40.2833 12.352 39.9153 12.232 39.4513 12.152C38.9873 12.072 38.4753 11.992 37.9153 11.912C37.3713 11.832 36.8193 11.728 36.2593 11.6C35.6993 11.456 35.1873 11.248 34.7233 10.976C34.2593 10.704 33.8833 10.336 33.5953 9.872C33.3233 9.408 33.1873 8.808 33.1873 8.072C33.1873 7.256 33.4193 6.536 33.8833 5.912C34.3633 5.288 35.0513 4.8 35.9473 4.448C36.8433 4.08 37.9153 3.896 39.1633 3.896C40.0433 3.896 40.9393 3.992 41.8513 4.184C42.7633 4.376 43.5233 4.656 44.1313 5.024L42.8833 7.688C42.2593 7.32 41.6273 7.072 40.9873 6.944C40.3633 6.8 39.7553 6.728 39.1633 6.728C38.3313 6.728 37.7233 6.84 37.3393 7.064C36.9553 7.288 36.7633 7.576 36.7633 7.928C36.7633 8.248 36.8993 8.488 37.1713 8.648C37.4593 8.808 37.8353 8.936 38.2993 9.032C38.7633 9.128 39.2673 9.216 39.8113 9.296C40.3713 9.36 40.9313 9.464 41.4913 9.608C42.0513 9.752 42.5553 9.96 43.0033 10.232C43.4673 10.488 43.8433 10.848 44.1313 11.312C44.4193 11.76 44.5633 12.352 44.5633 13.088C44.5633 13.888 44.3233 14.6 43.8433 15.224C43.3633 15.832 42.6673 16.312 41.7553 16.664C40.8593 17.016 39.7633 17.192 38.4673 17.192ZM51.3173 17.192C50.2133 17.192 49.1493 17.064 48.1253 16.808C47.1173 16.536 46.3173 16.2 45.7253 15.8L46.9733 13.112C47.5653 13.48 48.2613 13.784 49.0613 14.024C49.8773 14.248 50.6773 14.36 51.4613 14.36C52.3253 14.36 52.9333 14.256 53.2853 14.048C53.6533 13.84 53.8373 13.552 53.8373 13.184C53.8373 12.88 53.6933 12.656 53.4053 12.512C53.1333 12.352 52.7653 12.232 52.3013 12.152C51.8373 12.072 51.3253 11.992 50.7653 11.912C50.2213 11.832 49.6693 11.728 49.1093 11.6C48.5493 11.456 48.0373 11.248 47.5733 10.976C47.1093 10.704 46.7333 10.336 46.4453 9.872C46.1733 9.408 46.0373 8.808 46.0373 8.072C46.0373 7.256 46.2693 6.536 46.7333 5.912C47.2133 5.288 47.9013 4.8 48.7973 4.448C49.6933 4.08 50.7653 3.896 52.0133 3.896C52.8933 3.896 53.7893 3.992 54.7013 4.184C55.6133 4.376 56.3733 4.656 56.9813 5.024L55.7333 7.688C55.1093 7.32 54.4773 7.072 53.8373 6.944C53.2133 6.8 52.6053 6.728 52.0133 6.728C51.1813 6.728 50.5733 6.84 50.1893 7.064C49.8053 7.288 49.6133 7.576 49.6133 7.928C49.6133 8.248 49.7493 8.488 50.0213 8.648C50.3093 8.808 50.6853 8.936 51.1493 9.032C51.6133 9.128 52.1173 9.216 52.6613 9.296C53.2213 9.36 53.7813 9.464 54.3413 9.608C54.9013 9.752 55.4053 9.96 55.8533 10.232C56.3173 10.488 56.6933 10.848 56.9813 11.312C57.2693 11.76 57.4133 12.352 57.4133 13.088C57.4133 13.888 57.1733 14.6 56.6933 15.224C56.2133 15.832 55.5173 16.312 54.6053 16.664C53.7093 17.016 52.6133 17.192 51.3173 17.192ZM66.0633 17.192C64.6713 17.192 63.4313 16.912 62.3433 16.352C61.2553 15.776 60.3993 14.984 59.7753 13.976C59.1673 12.968 58.8633 11.824 58.8633 10.544C58.8633 9.248 59.1673 8.104 59.7753 7.112C60.3993 6.104 61.2553 5.32 62.3433 4.76C63.4313 4.184 64.6713 3.896 66.0633 3.896C67.4233 3.896 68.6073 4.184 69.6153 4.76C70.6233 5.32 71.3673 6.128 71.8473 7.184L68.9433 8.744C68.6073 8.136 68.1833 7.688 67.6713 7.4C67.1753 7.112 66.6313 6.968 66.0393 6.968C65.3993 6.968 64.8233 7.112 64.3113 7.4C63.7993 7.688 63.3913 8.096 63.0873 8.624C62.7993 9.152 62.6553 9.792 62.6553 10.544C62.6553 11.296 62.7993 11.936 63.0873 12.464C63.3913 12.992 63.7993 13.4 64.3113 13.688C64.8233 13.976 65.3993 14.12 66.0393 14.12C66.6313 14.12 67.1753 13.984 67.6713 13.712C68.1833 13.424 68.6073 12.968 68.9433 12.344L71.8473 13.928C71.3673 14.968 70.6233 15.776 69.6153 16.352C68.6073 16.912 67.4233 17.192 66.0633 17.192ZM80.0829 17.192C78.7069 17.192 77.4829 16.904 76.4109 16.328C75.3549 15.752 74.5149 14.968 73.8909 13.976C73.2829 12.968 72.9789 11.824 72.9789 10.544C72.9789 9.248 73.2829 8.104 73.8909 7.112C74.5149 6.104 75.3549 5.32 76.4109 4.76C77.4829 4.184 78.7069 3.896 80.0829 3.896C81.4429 3.896 82.6589 4.184 83.7309 4.76C84.8029 5.32 85.6429 6.096 86.2509 7.088C86.8589 8.08 87.1629 9.232 87.1629 10.544C87.1629 11.824 86.8589 12.968 86.2509 13.976C85.6429 14.968 84.8029 15.752 83.7309 16.328C82.6589 16.904 81.4429 17.192 80.0829 17.192ZM80.0829 14.12C80.7069 14.12 81.2669 13.976 81.7629 13.688C82.2589 13.4 82.6509 12.992 82.9389 12.464C83.2269 11.92 83.3709 11.28 83.3709 10.544C83.3709 9.792 83.2269 9.152 82.9389 8.624C82.6509 8.096 82.2589 7.688 81.7629 7.4C81.2669 7.112 80.7069 6.968 80.0829 6.968C79.4589 6.968 78.8989 7.112 78.4029 7.4C77.9069 7.688 77.5069 8.096 77.2029 8.624C76.9149 9.152 76.7709 9.792 76.7709 10.544C76.7709 11.28 76.9149 11.92 77.2029 12.464C77.5069 12.992 77.9069 13.4 78.4029 13.688C78.8989 13.976 79.4589 14.12 80.0829 14.12ZM89.7655 17V4.088H93.3415V7.736L92.8375 6.68C93.2215 5.768 93.8375 5.08 94.6855 4.616C95.5335 4.136 96.5655 3.896 97.7815 3.896V7.352C97.6215 7.336 97.4775 7.328 97.3495 7.328C97.2215 7.312 97.0855 7.304 96.9415 7.304C95.9175 7.304 95.0855 7.6 94.4455 8.192C93.8215 8.768 93.5095 9.672 93.5095 10.904V17H89.7655ZM107.74 17.192C106.652 17.192 105.7 16.952 104.884 16.472C104.068 15.992 103.428 15.264 102.964 14.288C102.516 13.296 102.292 12.048 102.292 10.544C102.292 9.024 102.508 7.776 102.94 6.8C103.372 5.824 103.996 5.096 104.812 4.616C105.628 4.136 106.604 3.896 107.74 3.896C108.956 3.896 110.044 4.176 111.004 4.736C111.98 5.28 112.748 6.048 113.308 7.04C113.884 8.032 114.172 9.2 114.172 10.544C114.172 11.904 113.884 13.08 113.308 14.072C112.748 15.064 111.98 15.832 111.004 16.376C110.044 16.92 108.956 17.192 107.74 17.192ZM100.108 21.656V4.088H103.684V6.728L103.612 10.568L103.852 14.384V21.656H100.108ZM107.092 14.12C107.716 14.12 108.268 13.976 108.748 13.688C109.244 13.4 109.636 12.992 109.924 12.464C110.228 11.92 110.38 11.28 110.38 10.544C110.38 9.792 110.228 9.152 109.924 8.624C109.636 8.096 109.244 7.688 108.748 7.4C108.268 7.112 107.716 6.968 107.092 6.968C106.468 6.968 105.908 7.112 105.412 7.4C104.916 7.688 104.524 8.096 104.236 8.624C103.948 9.152 103.804 9.792 103.804 10.544C103.804 11.28 103.948 11.92 104.236 12.464C104.524 12.992 104.916 13.4 105.412 13.688C105.908 13.976 106.468 14.12 107.092 14.12Z" fill="white"/>
</svg>
