<svg width="23" height="22" viewBox="0 0 23 22" fill="none" xmlns="http://www.w3.org/2000/svg">
<path d="M20.1311 8.41256C20.0734 8.24274 19.9673 8.09353 19.8258 7.98335C19.6843 7.87316 19.5137 7.80681 19.3349 7.79251L14.1057 7.377L11.8429 2.36798C11.7709 2.20665 11.6536 2.06963 11.5054 1.97344C11.3572 1.87726 11.1843 1.82602 11.0076 1.82593C10.8309 1.82583 10.658 1.87687 10.5097 1.9729C10.3613 2.06892 10.244 2.20582 10.1717 2.36707L7.90891 7.377L2.67976 7.79251C2.50407 7.80642 2.3361 7.87066 2.19597 7.97754C2.05583 8.08442 1.94945 8.2294 1.88955 8.39516C1.82966 8.56091 1.81878 8.74041 1.85823 8.91218C1.89768 9.08395 1.98578 9.24072 2.11199 9.36373L5.9763 13.1308L4.60962 19.0488C4.56812 19.2279 4.58142 19.4154 4.64779 19.5869C4.71417 19.7584 4.83055 19.9059 4.98183 20.0105C5.13312 20.115 5.31233 20.1716 5.4962 20.173C5.68008 20.1744 5.86013 20.1205 6.01299 20.0183L11.0073 16.6888L16.0017 20.0183C16.1579 20.1221 16.3422 20.1755 16.5297 20.1713C16.7171 20.1672 16.8989 20.1058 17.0504 19.9953C17.202 19.8848 17.316 19.7306 17.3773 19.5533C17.4386 19.3761 17.4441 19.1843 17.3931 19.0039L15.7155 13.1336L19.8761 9.38941C20.1485 9.14359 20.2485 8.76019 20.1311 8.41256Z" fill="#F3CD03"/>
</svg>
